PathFileType	4	(X/Y/Z)	 s03c0301.trc
DataRate	CameraRate	NumFrames	NumMarkers	Units	OrigDataRate	OrigDataStartFrame	OrigNumFrames
200	200	4	52	mm	200	251	2000
Frame#	Time	racr			lacr			c7			jug			rlel			rdr			llel			ldr			s2			lic			ric			lasi			rasi			rpsi			lpsi			rgt			lgt			rth1			rth2			rth3			rth4			rlfc			rmfc			rsh1			rsh2			rsh3			rsh4			rlmal			rmmal			rcal			rtoe			rmt5			rmt1			lth1			lth2			lth4			lth3			llfc			lmfc			lsh1			lsh2			lsh3			lsh4			llmal			lmmal			lcal			ltoe			lmt1			lmt5			SBIKE			LBIKE			RBIKE			
		X1	Y1	Z1	X2	Y2	Z2	X3	Y3	Z3	X4	Y4	Z4	X5	Y5	Z5	X6	Y6	Z6	X7	Y7	Z7	X8	Y8	Z8	X9	Y9	Z9	X10	Y10	Z10	X11	Y11	Z11	X12	Y12	Z12	X13	Y13	Z13	X14	Y14	Z14	X15	Y15	Z15	X16	Y16	Z16	X17	Y17	Z17	X18	Y18	Z18	X19	Y19	Z19	X20	Y20	Z20	X21	Y21	Z21	X22	Y22	Z22	X23	Y23	Z23	X24	Y24	Z24	X25	Y25	Z25	X26	Y26	Z26	X27	Y27	Z27	X28	Y28	Z28	X29	Y29	Z29	X30	Y30	Z30	X31	Y31	Z31	X32	Y32	Z32	X33	Y33	Z33	X34	Y34	Z34	X35	Y35	Z35	X36	Y36	Z36	X37	Y37	Z37	X38	Y38	Z38	X39	Y39	Z39	X40	Y40	Z40	X41	Y41	Z41	X42	Y42	Z42	X43	Y43	Z43	X44	Y44	Z44	X45	Y45	Z45	X46	Y46	Z46	X47	Y47	Z47	X48	Y48	Z48	X49	Y49	Z49	X50	Y50	Z50	X51	Y51	Z51	X52	Y52	Z52	
251	1.2550	484.699576	1401.207990	-71.182184	480.538635	1413.987453	-388.033638	414.369030	1485.286913	-227.787782	444.852138	1318.114892	-227.458266	533.856064	1140.178493	14.236067	747.455122	943.883955	-35.406533	557.977327	1157.188628	-449.428676	756.247881	928.258069	-408.208937	-105.766308	1204.100528	-234.677998	81.692452	1208.472476	-416.572623	71.937231	1223.355468	-50.739203	89.199282	1131.405894	-381.776519	81.892081	1158.304939	-90.407797	-75.433668	1254.955937	-190.967955	-67.770163	1250.806223	-273.135751	-0.367953	1141.297796	-28.494896	7.783933	1101.037177	-432.757472	120.572771	1048.852954	-3.495222	209.496748	1044.578079	0.435120	283.051161	998.878639	0.046856	220.920934	1076.976561	-14.290079	400.875142	929.038269	-21.168860	413.806910	919.528802	-146.412282	347.849437	769.797860	-8.801847	338.533259	683.259662	-28.922433	285.567564	612.587039	-36.511821	366.883865	676.977247	-54.707058	234.881017	490.915075	-64.659604	258.018558	509.895178	-151.656951	175.677759	435.370955	-107.977449	481.888296	476.922999	-107.920767	367.435121	440.649490	-37.728101	389.603035	461.628563	-152.627439	81.690060	963.159221	-459.477714	147.728146	908.590933	-471.964996	177.845511	929.658993	-469.737922	181.235674	825.481696	-466.452265	268.960705	727.563740	-461.269688	283.893420	718.637204	-336.314722	170.662923	585.262247	-470.350149	149.521610	506.413653	-445.676759	85.579989	443.131539	-431.926773	177.954038	494.365350	-421.153554	14.655146	341.887039	-401.688193	54.631327	350.320348	-313.868237	-59.440277	316.046166	-349.295728	234.348838	223.037178	-353.844718	142.845124	243.670807	-308.956206	112.393907	233.545595	-423.558465	-213.003680	946.164682	-228.332629	-4.408858	83.862322	-432.896899	-8.903372	80.663113	-32.634030	
252	1.2600	484.680457	1401.195056	-71.168499	480.559436	1413.980797	-388.012935	414.372523	1485.276567	-227.806823	444.853150	1318.085378	-227.458243	533.825332	1140.160103	14.257428	747.451603	943.862390	-35.398754	557.966293	1157.177664	-449.436851	756.252111	928.264938	-408.220538	-105.757867	1204.094075	-234.677344	81.692546	1208.472543	-416.572860	71.942898	1223.351272	-50.740576	89.186510	1131.404694	-381.780363	81.889015	1158.318033	-90.404639	-75.442936	1254.968397	-190.945716	-67.776178	1250.808429	-273.133702	-0.354997	1141.294765	-28.502910	7.791450	1101.028001	-432.756091	120.587829	1048.847303	-3.510739	209.516712	1044.577634	0.433593	283.058454	998.868090	0.006573	220.929973	1076.980094	-14.304486	400.866623	929.039039	-21.163811	413.806913	919.528797	-146.412287	347.849890	769.805150	-8.807649	338.538053	683.261414	-28.921470	285.568964	612.590863	-36.510512	366.902325	676.999270	-54.709385	234.866410	490.917040	-64.662845	258.060606	509.909283	-151.659344	175.672575	435.380088	-107.969759	481.893243	476.913956	-107.933278	367.430563	440.637432	-37.741355	389.617207	461.622276	-152.633649	81.691518	963.149717	-459.460629	147.724438	908.598705	-471.994058	177.845578	929.658381	-469.736901	181.253937	825.487026	-466.465731	268.974605	727.540857	-461.250757	283.897151	718.642885	-336.300424	170.664060	585.270846	-470.359983	149.521811	506.407114	-445.671044	85.578698	443.125978	-431.927441	177.952749	494.348642	-421.163770	14.656991	341.897697	-401.687444	54.650464	350.327884	-313.894263	-59.440395	316.045853	-349.292682	234.344428	223.030876	-353.834161	142.842349	243.672436	-308.955976	112.405435	233.554003	-423.548885	-213.000505	946.159376	-228.312057	-4.416215	83.869634	-432.889066	-8.908629	80.662699	-32.623600	
253	1.2650	484.697992	1401.146280	-71.158740	480.553243	1413.975677	-388.022282	414.361418	1485.270244	-227.817407	444.852273	1318.085267	-227.462744	533.835553	1140.121001	14.265951	747.450573	943.867350	-35.382443	557.969757	1157.168257	-449.449024	756.251916	928.251968	-408.216049	-105.766244	1204.099124	-234.674901	81.704393	1208.483556	-416.614101	71.920873	1223.359721	-50.733041	89.187910	1131.410318	-381.779453	81.859816	1158.328709	-90.370879	-75.436966	1254.956277	-190.975325	-67.766472	1250.799159	-273.149116	-0.342906	1141.307146	-28.504156	7.790083	1101.025348	-432.753800	120.577698	1048.861961	-3.495900	209.501387	1044.589973	0.431700	283.071217	998.891360	0.009865	220.930357	1076.996193	-14.307077	400.881579	929.058542	-21.172289	413.818551	919.549623	-146.427786	347.857917	769.817109	-8.803875	338.548853	683.267189	-28.933755	285.600257	612.588245	-36.500738	366.919631	677.006590	-54.720006	234.896748	490.921569	-64.678667	258.061800	509.908177	-151.659682	175.677453	435.383490	-107.976508	481.901031	476.903652	-107.949308	367.451833	440.645059	-37.728469	389.628850	461.631306	-152.641449	81.683019	963.149003	-459.495602	147.734358	908.594444	-471.966639	177.845877	929.657903	-469.735100	181.244827	825.488616	-466.470590	268.970060	727.543946	-461.261131	283.915075	718.651565	-336.301501	170.679303	585.268712	-470.341926	149.521608	506.413648	-445.676755	85.574243	443.139993	-431.939013	177.961528	494.364907	-421.149311	14.655282	341.896630	-401.691366	54.602552	350.341644	-313.855675	-59.444518	316.048046	-349.294145	234.337869	223.042132	-353.836961	142.840056	243.672455	-308.956032	112.396900	233.551910	-423.550864	-213.000503	946.163800	-228.318205	-4.406513	83.875288	-432.884751	-8.882548	80.672811	-32.614649	
254	1.2700	484.677624	1401.130129	-71.147789	480.548829	1413.963386	-388.032899	414.358689	1485.269037	-227.812979	444.852233	1318.085279	-227.462827	533.816247	1140.101621	14.279241	747.438162	943.855562	-35.387406	557.956852	1157.163851	-449.469563	756.230635	928.227984	-408.159445	-105.828260	1204.225689	-234.760547	81.704470	1208.468335	-416.615720	71.927928	1223.362247	-50.741335	89.173139	1131.401597	-381.779080	81.791328	1158.413273	-90.293601	-75.437905	1254.953968	-190.980415	-67.767892	1250.807788	-273.146969	-0.358340	1141.293637	-28.509065	7.790676	1101.027745	-432.755350	120.579540	1048.874788	-3.515453	209.524845	1044.586264	0.416124	283.067814	998.891319	-0.010181	220.931987	1076.991753	-14.322106	400.890143	929.067995	-21.179160	413.820613	919.541990	-146.421650	347.872916	769.834525	-8.811069	338.540638	683.277022	-28.952586	285.607923	612.597910	-36.519710	366.913357	677.019096	-54.710490	234.888757	490.943314	-64.677325	258.072359	509.914904	-151.671758	175.683371	435.390273	-107.985626	481.913020	476.895673	-107.943869	367.454735	440.647920	-37.741359	389.611801	461.619357	-152.618101	81.700897	963.147585	-459.463731	147.736452	908.597116	-471.978822	177.850719	929.650456	-469.729497	181.259514	825.477697	-466.470317	268.981951	727.545706	-461.255181	283.927039	718.646064	-336.295108	170.676663	585.266065	-470.341484	149.530494	506.411943	-445.670464	85.578996	443.147460	-431.929781	177.972927	494.357320	-421.161734	14.654689	341.903345	-401.686631	54.616408	350.352088	-313.883544	-59.440125	316.061747	-349.303114	234.343207	223.037223	-353.833937	142.840339	243.672046	-308.955501	112.396792	233.552525	-423.545473	-213.008335	946.164262	-228.319931	-4.411145	83.872734	-432.891136	-8.897588	80.684407	-32.618531	
